# xmcd
#
# Track frame offsets: 
#        150
#        12202
#        30654
#        45981
#        57308
#        74410
#        84837
#        97451
#        108691
#        123293
#        138570
#        148972
#        160524
#        174588
#        194378
#        206130
#        220369
#        235034
#        248936
#        256613
#
# Disc length: 3543 seconds
#
# Revision: 2
# Processed by: cddbd v1.5.2PL0 Copyright (c) Steve Scherf et al.
# Submitted via: ExactAudioCopy v0.99pb5
#
DISCID=230dd514
DTITLE=Joe Petzlin and Gottfried Böttger - Take Two
DYEAR=1998
DGENRE=
TTITLE0=Take Two
TTITLE1=I'm Walking
TTITLE2=Basin Street Blues
TTITLE3=Boogie Driver
TTITLE4=St. Louis Blues
TTITLE5=Runnin Hamp
TTITLE6=Soft Winds
TTITLE7=C Jam Blues
TTITLE8=Makin' Bread Again
TTITLE9=I Got Rhythm
TTITLE10=Go Joe
TTITLE11=Centerpiece
TTITLE12=Robbin's Nest
TTITLE13=Du Bist Mein Ganzer Blues
TTITLE14=Little Susie
TTITLE15=Cheek To Cheek
TTITLE16=Lonely Avenue
TTITLE17=Canonball
TTITLE18=Tee Time
TTITLE19=The Preacher
EXTD=
EXTT0=
EXTT1=
EXTT2=
EXTT3=
EXTT4=
EXTT5=
EXTT6=
EXTT7=
EXTT8=
EXTT9=
EXTT10=
EXTT11=
EXTT12=
EXTT13=
EXTT14=
EXTT15=
EXTT16=
EXTT17=
EXTT18=
EXTT19=
PLAYORDER=
